<svg id="visual" viewBox="0 0 1080 100" width="1080" height="100" xmlns="http://www.w3.org/2000/svg" xmlns:xlink="http://www.w3.org/1999/xlink" version="1.1"><rect x="0" y="0" width="1080" height="100" fill="#111111"></rect><path d="M0 49L15 48.7C30 48.3 60 47.7 90 45.5C120 43.3 150 39.7 180 38.3C210 37 240 38 270 38.7C300 39.3 330 39.7 360 39C390 38.3 420 36.7 450 36.3C480 36 510 37 540 38.5C570 40 600 42 630 41.8C660 41.7 690 39.3 720 39.5C750 39.7 780 42.3 810 43C840 43.7 870 42.3 900 41C930 39.7 960 38.3 990 39.5C1020 40.7 1050 44.3 1065 46.2L1080 48L1080 0L1065 0C1050 0 1020 0 990 0C960 0 930 0 900 0C870 0 840 0 810 0C780 0 750 0 720 0C690 0 660 0 630 0C600 0 570 0 540 0C510 0 480 0 450 0C420 0 390 0 360 0C330 0 300 0 270 0C240 0 210 0 180 0C150 0 120 0 90 0C60 0 30 0 15 0L0 0Z" fill="#164a65"></path><path d="M0 29L15 27.8C30 26.7 60 24.3 90 23.7C120 23 150 24 180 24.5C210 25 240 25 270 25.2C300 25.3 330 25.7 360 24.7C390 23.7 420 21.3 450 21.5C480 21.7 510 24.3 540 26.5C570 28.7 600 30.3 630 29.2C660 28 690 24 720 23.7C750 23.3 780 26.7 810 27.5C840 28.3 870 26.7 900 27.5C930 28.3 960 31.7 990 30.8C1020 30 1050 25 1065 22.5L1080 20L1080 0L1065 0C1050 0 1020 0 990 0C960 0 930 0 900 0C870 0 840 0 810 0C780 0 750 0 720 0C690 0 660 0 630 0C600 0 570 0 540 0C510 0 480 0 450 0C420 0 390 0 360 0C330 0 300 0 270 0C240 0 210 0 180 0C150 0 120 0 90 0C60 0 30 0 15 0L0 0Z" fill="#216e97"></path><path d="M0 19L15 18C30 17 60 15 90 14.8C120 14.7 150 16.3 180 15.3C210 14.3 240 10.7 270 10.8C300 11 330 15 360 16.8C390 18.7 420 18.3 450 18C480 17.7 510 17.3 540 15.5C570 13.7 600 10.3 630 10C660 9.7 690 12.3 720 14C750 15.7 780 16.3 810 15.2C840 14 870 11 900 10.8C930 10.7 960 13.3 990 14.7C1020 16 1050 16 1065 16L1080 16L1080 0L1065 0C1050 0 1020 0 990 0C960 0 930 0 900 0C870 0 840 0 810 0C780 0 750 0 720 0C690 0 660 0 630 0C600 0 570 0 540 0C510 0 480 0 450 0C420 0 390 0 360 0C330 0 300 0 270 0C240 0 210 0 180 0C150 0 120 0 90 0C60 0 30 0 15 0L0 0Z" fill="#2e95cc"></path></svg>