<svg id="visual" viewBox="0 0 1080 100" width="1080" height="100" xmlns="http://www.w3.org/2000/svg" xmlns:xlink="http://www.w3.org/1999/xlink" version="1.1"><rect x="0" y="0" width="1080" height="100" fill="#111111"></rect><path d="M0 30L15 31.3C30 32.7 60 35.3 90 36.3C120 37.3 150 36.7 180 36.8C210 37 240 38 270 39.3C300 40.7 330 42.3 360 43.7C390 45 420 46 450 45.3C480 44.7 510 42.3 540 40C570 37.7 600 35.3 630 34.5C660 33.7 690 34.3 720 34.3C750 34.3 780 33.7 810 33.7C840 33.7 870 34.3 900 34.8C930 35.3 960 35.7 990 35.5C1020 35.3 1050 34.7 1065 34.3L1080 34L1080 0L1065 0C1050 0 1020 0 990 0C960 0 930 0 900 0C870 0 840 0 810 0C780 0 750 0 720 0C690 0 660 0 630 0C600 0 570 0 540 0C510 0 480 0 450 0C420 0 390 0 360 0C330 0 300 0 270 0C240 0 210 0 180 0C150 0 120 0 90 0C60 0 30 0 15 0L0 0Z" fill="#164a65"></path><path d="M0 29L15 27.8C30 26.7 60 24.3 90 22.8C120 21.3 150 20.7 180 20.8C210 21 240 22 270 21.8C300 21.7 330 20.3 360 21.2C390 22 420 25 450 26.5C480 28 510 28 540 27.5C570 27 600 26 630 24.8C660 23.7 690 22.3 720 22C750 21.7 780 22.3 810 22.8C840 23.3 870 23.7 900 23.7C930 23.7 960 23.3 990 24.8C1020 26.3 1050 29.7 1065 31.3L1080 33L1080 0L1065 0C1050 0 1020 0 990 0C960 0 930 0 900 0C870 0 840 0 810 0C780 0 750 0 720 0C690 0 660 0 630 0C600 0 570 0 540 0C510 0 480 0 450 0C420 0 390 0 360 0C330 0 300 0 270 0C240 0 210 0 180 0C150 0 120 0 90 0C60 0 30 0 15 0L0 0Z" fill="#216e97"></path><path d="M0 8L15 9.3C30 10.7 60 13.3 90 13.2C120 13 150 10 180 9.3C210 8.7 240 10.3 270 10.7C300 11 330 10 360 10C390 10 420 11 450 10.8C480 10.7 510 9.3 540 10.2C570 11 600 14 630 13.8C660 13.7 690 10.3 720 9.5C750 8.7 780 10.3 810 12.5C840 14.7 870 17.3 900 18.7C930 20 960 20 990 19C1020 18 1050 16 1065 15L1080 14L1080 0L1065 0C1050 0 1020 0 990 0C960 0 930 0 900 0C870 0 840 0 810 0C780 0 750 0 720 0C690 0 660 0 630 0C600 0 570 0 540 0C510 0 480 0 450 0C420 0 390 0 360 0C330 0 300 0 270 0C240 0 210 0 180 0C150 0 120 0 90 0C60 0 30 0 15 0L0 0Z" fill="#2e95cc"></path></svg>