<svg id="visual" viewBox="0 0 1080 100" width="1080" height="100" xmlns="http://www.w3.org/2000/svg" xmlns:xlink="http://www.w3.org/1999/xlink" version="1.1"><rect x="0" y="0" width="1080" height="100" fill="#111111"></rect><path d="M0 33L15 33.2C30 33.3 60 33.7 90 34.2C120 34.7 150 35.3 180 37.8C210 40.3 240 44.7 270 46C300 47.3 330 45.7 360 42.8C390 40 420 36 450 36C480 36 510 40 540 40.5C570 41 600 38 630 35.7C660 33.3 690 31.7 720 34C750 36.3 780 42.7 810 45.5C840 48.3 870 47.7 900 47.3C930 47 960 47 990 46.7C1020 46.3 1050 45.7 1065 45.3L1080 45L1080 0L1065 0C1050 0 1020 0 990 0C960 0 930 0 900 0C870 0 840 0 810 0C780 0 750 0 720 0C690 0 660 0 630 0C600 0 570 0 540 0C510 0 480 0 450 0C420 0 390 0 360 0C330 0 300 0 270 0C240 0 210 0 180 0C150 0 120 0 90 0C60 0 30 0 15 0L0 0Z" fill="#164a65"></path><path d="M0 25L15 25.8C30 26.7 60 28.3 90 28.3C120 28.3 150 26.7 180 27.2C210 27.7 240 30.3 270 30.5C300 30.7 330 28.3 360 27.5C390 26.7 420 27.3 450 27.2C480 27 510 26 540 27C570 28 600 31 630 30.8C660 30.7 690 27.3 720 25.5C750 23.7 780 23.3 810 23.2C840 23 870 23 900 22.8C930 22.7 960 22.3 990 21.8C1020 21.3 1050 20.7 1065 20.3L1080 20L1080 0L1065 0C1050 0 1020 0 990 0C960 0 930 0 900 0C870 0 840 0 810 0C780 0 750 0 720 0C690 0 660 0 630 0C600 0 570 0 540 0C510 0 480 0 450 0C420 0 390 0 360 0C330 0 300 0 270 0C240 0 210 0 180 0C150 0 120 0 90 0C60 0 30 0 15 0L0 0Z" fill="#216e97"></path><path d="M0 19L15 17.5C30 16 60 13 90 13.3C120 13.7 150 17.3 180 19.2C210 21 240 21 270 20.8C300 20.7 330 20.3 360 19.7C390 19 420 18 450 17.8C480 17.7 510 18.3 540 17.7C570 17 600 15 630 14.3C660 13.7 690 14.3 720 14.2C750 14 780 13 810 13.3C840 13.7 870 15.3 900 16C930 16.7 960 16.3 990 15C1020 13.7 1050 11.3 1065 10.2L1080 9L1080 0L1065 0C1050 0 1020 0 990 0C960 0 930 0 900 0C870 0 840 0 810 0C780 0 750 0 720 0C690 0 660 0 630 0C600 0 570 0 540 0C510 0 480 0 450 0C420 0 390 0 360 0C330 0 300 0 270 0C240 0 210 0 180 0C150 0 120 0 90 0C60 0 30 0 15 0L0 0Z" fill="#2e95cc"></path></svg>