<svg id="visual" viewBox="0 0 1080 100" width="1080" height="100" xmlns="http://www.w3.org/2000/svg" xmlns:xlink="http://www.w3.org/1999/xlink" version="1.1"><rect x="0" y="0" width="1080" height="100" fill="#111111"></rect><path d="M0 34L15 36C30 38 60 42 90 42.5C120 43 150 40 180 39.8C210 39.7 240 42.3 270 42.7C300 43 330 41 360 40.5C390 40 420 41 450 42.7C480 44.3 510 46.7 540 44.7C570 42.7 600 36.3 630 33.7C660 31 690 32 720 32.5C750 33 780 33 810 33.7C840 34.3 870 35.7 900 35.3C930 35 960 33 990 34C1020 35 1050 39 1065 41L1080 43L1080 0L1065 0C1050 0 1020 0 990 0C960 0 930 0 900 0C870 0 840 0 810 0C780 0 750 0 720 0C690 0 660 0 630 0C600 0 570 0 540 0C510 0 480 0 450 0C420 0 390 0 360 0C330 0 300 0 270 0C240 0 210 0 180 0C150 0 120 0 90 0C60 0 30 0 15 0L0 0Z" fill="#164a65"></path><path d="M0 30L15 28.2C30 26.3 60 22.7 90 23.3C120 24 150 29 180 31.3C210 33.7 240 33.3 270 33C300 32.7 330 32.3 360 32.3C390 32.3 420 32.7 450 32.8C480 33 510 33 540 32.2C570 31.3 600 29.7 630 27.7C660 25.7 690 23.3 720 23.5C750 23.7 780 26.3 810 26.8C840 27.3 870 25.7 900 25C930 24.3 960 24.7 990 26.2C1020 27.7 1050 30.3 1065 31.7L1080 33L1080 0L1065 0C1050 0 1020 0 990 0C960 0 930 0 900 0C870 0 840 0 810 0C780 0 750 0 720 0C690 0 660 0 630 0C600 0 570 0 540 0C510 0 480 0 450 0C420 0 390 0 360 0C330 0 300 0 270 0C240 0 210 0 180 0C150 0 120 0 90 0C60 0 30 0 15 0L0 0Z" fill="#216e97"></path><path d="M0 8L15 8.5C30 9 60 10 90 11C120 12 150 13 180 13.7C210 14.3 240 14.7 270 14.7C300 14.7 330 14.3 360 14.2C390 14 420 14 450 12.8C480 11.7 510 9.3 540 10C570 10.7 600 14.3 630 16.2C660 18 690 18 720 17C750 16 780 14 810 13.5C840 13 870 14 900 15.3C930 16.7 960 18.3 990 18.7C1020 19 1050 18 1065 17.5L1080 17L1080 0L1065 0C1050 0 1020 0 990 0C960 0 930 0 900 0C870 0 840 0 810 0C780 0 750 0 720 0C690 0 660 0 630 0C600 0 570 0 540 0C510 0 480 0 450 0C420 0 390 0 360 0C330 0 300 0 270 0C240 0 210 0 180 0C150 0 120 0 90 0C60 0 30 0 15 0L0 0Z" fill="#2e95cc"></path></svg>