<svg id="visual" viewBox="0 0 1080 100" width="1080" height="100" xmlns="http://www.w3.org/2000/svg" xmlns:xlink="http://www.w3.org/1999/xlink" version="1.1"><rect x="0" y="0" width="1080" height="100" fill="#111111"></rect><path d="M0 33L15 34.3C30 35.7 60 38.3 90 40.5C120 42.7 150 44.3 180 44.3C210 44.3 240 42.7 270 42.7C300 42.7 330 44.3 360 42.8C390 41.3 420 36.7 450 34.8C480 33 510 34 540 36.8C570 39.7 600 44.3 630 46.3C660 48.3 690 47.7 720 45.2C750 42.7 780 38.3 810 36C840 33.7 870 33.3 900 35.7C930 38 960 43 990 43.7C1020 44.3 1050 40.7 1065 38.8L1080 37L1080 0L1065 0C1050 0 1020 0 990 0C960 0 930 0 900 0C870 0 840 0 810 0C780 0 750 0 720 0C690 0 660 0 630 0C600 0 570 0 540 0C510 0 480 0 450 0C420 0 390 0 360 0C330 0 300 0 270 0C240 0 210 0 180 0C150 0 120 0 90 0C60 0 30 0 15 0L0 0Z" fill="#164a65"></path><path d="M0 35L15 35C30 35 60 35 90 34.7C120 34.3 150 33.7 180 32.8C210 32 240 31 270 31.2C300 31.3 330 32.7 360 32.7C390 32.7 420 31.3 450 30.5C480 29.7 510 29.3 540 28.3C570 27.3 600 25.7 630 25.3C660 25 690 26 720 27.8C750 29.7 780 32.3 810 31.5C840 30.7 870 26.3 900 24.5C930 22.7 960 23.3 990 24.7C1020 26 1050 28 1065 29L1080 30L1080 0L1065 0C1050 0 1020 0 990 0C960 0 930 0 900 0C870 0 840 0 810 0C780 0 750 0 720 0C690 0 660 0 630 0C600 0 570 0 540 0C510 0 480 0 450 0C420 0 390 0 360 0C330 0 300 0 270 0C240 0 210 0 180 0C150 0 120 0 90 0C60 0 30 0 15 0L0 0Z" fill="#216e97"></path><path d="M0 8L15 9.7C30 11.3 60 14.7 90 16C120 17.3 150 16.7 180 16.5C210 16.3 240 16.7 270 17.3C300 18 330 19 360 18.2C390 17.3 420 14.7 450 12.7C480 10.7 510 9.3 540 10.5C570 11.7 600 15.3 630 16.5C660 17.7 690 16.3 720 15.8C750 15.3 780 15.7 810 16.2C840 16.7 870 17.3 900 16.5C930 15.7 960 13.3 990 13C1020 12.7 1050 14.3 1065 15.2L1080 16L1080 0L1065 0C1050 0 1020 0 990 0C960 0 930 0 900 0C870 0 840 0 810 0C780 0 750 0 720 0C690 0 660 0 630 0C600 0 570 0 540 0C510 0 480 0 450 0C420 0 390 0 360 0C330 0 300 0 270 0C240 0 210 0 180 0C150 0 120 0 90 0C60 0 30 0 15 0L0 0Z" fill="#2e95cc"></path></svg>