<svg id="visual" viewBox="0 0 1080 100" width="1080" height="100" xmlns="http://www.w3.org/2000/svg" xmlns:xlink="http://www.w3.org/1999/xlink" version="1.1"><rect x="0" y="0" width="1080" height="100" fill="#111111"></rect><path d="M0 47L15 45C30 43 60 39 90 38.2C120 37.3 150 39.7 180 40.8C210 42 240 42 270 40.7C300 39.3 330 36.7 360 35.5C390 34.3 420 34.7 450 35.2C480 35.7 510 36.3 540 37C570 37.7 600 38.3 630 40C660 41.7 690 44.3 720 44.3C750 44.3 780 41.7 810 41C840 40.3 870 41.7 900 43.3C930 45 960 47 990 46.5C1020 46 1050 43 1065 41.5L1080 40L1080 0L1065 0C1050 0 1020 0 990 0C960 0 930 0 900 0C870 0 840 0 810 0C780 0 750 0 720 0C690 0 660 0 630 0C600 0 570 0 540 0C510 0 480 0 450 0C420 0 390 0 360 0C330 0 300 0 270 0C240 0 210 0 180 0C150 0 120 0 90 0C60 0 30 0 15 0L0 0Z" fill="#164a65"></path><path d="M0 26L15 25C30 24 60 22 90 22.3C120 22.7 150 25.3 180 27.8C210 30.3 240 32.7 270 32.3C300 32 330 29 360 27.7C390 26.3 420 26.7 450 26.2C480 25.7 510 24.3 540 24.7C570 25 600 27 630 27.5C660 28 690 27 720 26.5C750 26 780 26 810 26.7C840 27.3 870 28.7 900 28.5C930 28.3 960 26.7 990 27.3C1020 28 1050 31 1065 32.5L1080 34L1080 0L1065 0C1050 0 1020 0 990 0C960 0 930 0 900 0C870 0 840 0 810 0C780 0 750 0 720 0C690 0 660 0 630 0C600 0 570 0 540 0C510 0 480 0 450 0C420 0 390 0 360 0C330 0 300 0 270 0C240 0 210 0 180 0C150 0 120 0 90 0C60 0 30 0 15 0L0 0Z" fill="#216e97"></path><path d="M0 14L15 13.8C30 13.7 60 13.3 90 13.3C120 13.3 150 13.7 180 13.5C210 13.3 240 12.7 270 12.5C300 12.3 330 12.7 360 12.3C390 12 420 11 450 10.5C480 10 510 10 540 10C570 10 600 10 630 11.7C660 13.3 690 16.7 720 18.5C750 20.3 780 20.7 810 18.8C840 17 870 13 900 11C930 9 960 9 990 10.5C1020 12 1050 15 1065 16.5L1080 18L1080 0L1065 0C1050 0 1020 0 990 0C960 0 930 0 900 0C870 0 840 0 810 0C780 0 750 0 720 0C690 0 660 0 630 0C600 0 570 0 540 0C510 0 480 0 450 0C420 0 390 0 360 0C330 0 300 0 270 0C240 0 210 0 180 0C150 0 120 0 90 0C60 0 30 0 15 0L0 0Z" fill="#2e95cc"></path></svg>