<svg id="visual" viewBox="0 0 1080 200" width="1080" height="200" xmlns="http://www.w3.org/2000/svg" xmlns:xlink="http://www.w3.org/1999/xlink" version="1.1"><rect x="0" y="0" width="1080" height="200" fill="#111111"></rect><path d="M0 165L10.7 167.8C21.3 170.7 42.7 176.3 63.8 173.2C85 170 106 158 127.2 158.3C148.3 158.7 169.7 171.3 190.8 174.7C212 178 233 172 254.2 169C275.3 166 296.7 166 317.8 164.5C339 163 360 160 381.2 160.5C402.3 161 423.7 165 444.8 167.8C466 170.7 487 172.3 508.2 171.3C529.3 170.3 550.7 166.7 571.8 165C593 163.3 614 163.7 635.2 160.8C656.3 158 677.7 152 698.8 150.5C720 149 741 152 762.2 157.5C783.3 163 804.7 171 825.8 170.5C847 170 868 161 889.2 156C910.3 151 931.7 150 952.8 155C974 160 995 171 1016.2 173.2C1037.3 175.3 1058.7 168.7 1069.3 165.3L1080 162L1080 0L1069.3 0C1058.7 0 1037.3 0 1016.2 0C995 0 974 0 952.8 0C931.7 0 910.3 0 889.2 0C868 0 847 0 825.8 0C804.7 0 783.3 0 762.2 0C741 0 720 0 698.8 0C677.7 0 656.3 0 635.2 0C614 0 593 0 571.8 0C550.7 0 529.3 0 508.2 0C487 0 466 0 444.8 0C423.7 0 402.3 0 381.2 0C360 0 339 0 317.8 0C296.7 0 275.3 0 254.2 0C233 0 212 0 190.8 0C169.7 0 148.3 0 127.2 0C106 0 85 0 63.8 0C42.7 0 21.3 0 10.7 0L0 0Z" fill="#164a65"></path><path d="M0 151L10.7 148.7C21.3 146.3 42.7 141.7 63.8 141.2C85 140.7 106 144.3 127.2 142.7C148.3 141 169.7 134 190.8 132.3C212 130.7 233 134.3 254.2 138.3C275.3 142.3 296.7 146.7 317.8 144C339 141.3 360 131.7 381.2 131.2C402.3 130.7 423.7 139.3 444.8 142.3C466 145.3 487 142.7 508.2 137.7C529.3 132.7 550.7 125.3 571.8 122.5C593 119.7 614 121.3 635.2 122.8C656.3 124.3 677.7 125.7 698.8 124C720 122.3 741 117.7 762.2 119.8C783.3 122 804.7 131 825.8 136.7C847 142.3 868 144.7 889.2 143.2C910.3 141.7 931.7 136.3 952.8 134.5C974 132.7 995 134.3 1016.2 134.5C1037.3 134.7 1058.7 133.3 1069.3 132.7L1080 132L1080 0L1069.3 0C1058.7 0 1037.3 0 1016.2 0C995 0 974 0 952.8 0C931.7 0 910.3 0 889.2 0C868 0 847 0 825.8 0C804.7 0 783.3 0 762.2 0C741 0 720 0 698.8 0C677.7 0 656.3 0 635.2 0C614 0 593 0 571.8 0C550.7 0 529.3 0 508.2 0C487 0 466 0 444.8 0C423.7 0 402.3 0 381.2 0C360 0 339 0 317.8 0C296.7 0 275.3 0 254.2 0C233 0 212 0 190.8 0C169.7 0 148.3 0 127.2 0C106 0 85 0 63.8 0C42.7 0 21.3 0 10.7 0L0 0Z" fill="#1b5c7e"></path><path d="M0 90L10.7 94C21.3 98 42.7 106 63.8 104.8C85 103.7 106 93.3 127.2 90.5C148.3 87.7 169.7 92.3 190.8 94.7C212 97 233 97 254.2 96.2C275.3 95.3 296.7 93.7 317.8 92C339 90.3 360 88.7 381.2 89.2C402.3 89.7 423.7 92.3 444.8 92.8C466 93.3 487 91.7 508.2 93.7C529.3 95.7 550.7 101.3 571.8 100.8C593 100.3 614 93.7 635.2 89.2C656.3 84.7 677.7 82.3 698.8 84.7C720 87 741 94 762.2 96.5C783.3 99 804.7 97 825.8 95.8C847 94.7 868 94.3 889.2 98C910.3 101.7 931.7 109.3 952.8 108.5C974 107.7 995 98.3 1016.2 93.3C1037.3 88.3 1058.7 87.7 1069.3 87.3L1080 87L1080 0L1069.3 0C1058.7 0 1037.3 0 1016.2 0C995 0 974 0 952.8 0C931.7 0 910.3 0 889.2 0C868 0 847 0 825.8 0C804.7 0 783.3 0 762.2 0C741 0 720 0 698.8 0C677.7 0 656.3 0 635.2 0C614 0 593 0 571.8 0C550.7 0 529.3 0 508.2 0C487 0 466 0 444.8 0C423.7 0 402.3 0 381.2 0C360 0 339 0 317.8 0C296.7 0 275.3 0 254.2 0C233 0 212 0 190.8 0C169.7 0 148.3 0 127.2 0C106 0 85 0 63.8 0C42.7 0 21.3 0 10.7 0L0 0Z" fill="#216e97"></path><path d="M0 68L10.7 68.7C21.3 69.3 42.7 70.7 63.8 67.7C85 64.7 106 57.3 127.2 54.7C148.3 52 169.7 54 190.8 56.2C212 58.3 233 60.7 254.2 61.3C275.3 62 296.7 61 317.8 58.7C339 56.3 360 52.7 381.2 51.3C402.3 50 423.7 51 444.8 54C466 57 487 62 508.2 66.8C529.3 71.7 550.7 76.3 571.8 75C593 73.7 614 66.3 635.2 67C656.3 67.7 677.7 76.3 698.8 77.8C720 79.3 741 73.7 762.2 68.8C783.3 64 804.7 60 825.8 61.8C847 63.7 868 71.3 889.2 72.3C910.3 73.3 931.7 67.7 952.8 63.2C974 58.7 995 55.3 1016.2 57.5C1037.3 59.7 1058.7 67.3 1069.3 71.2L1080 75L1080 0L1069.3 0C1058.7 0 1037.3 0 1016.2 0C995 0 974 0 952.8 0C931.7 0 910.3 0 889.2 0C868 0 847 0 825.8 0C804.7 0 783.3 0 762.2 0C741 0 720 0 698.8 0C677.7 0 656.3 0 635.2 0C614 0 593 0 571.8 0C550.7 0 529.3 0 508.2 0C487 0 466 0 444.8 0C423.7 0 402.3 0 381.2 0C360 0 339 0 317.8 0C296.7 0 275.3 0 254.2 0C233 0 212 0 190.8 0C169.7 0 148.3 0 127.2 0C106 0 85 0 63.8 0C42.7 0 21.3 0 10.7 0L0 0Z" fill="#2781b1"></path><path d="M0 36L10.7 34.5C21.3 33 42.7 30 63.8 30C85 30 106 33 127.2 35.3C148.3 37.7 169.7 39.3 190.8 38.3C212 37.3 233 33.7 254.2 30.7C275.3 27.7 296.7 25.3 317.8 28.2C339 31 360 39 381.2 37.7C402.3 36.3 423.7 25.7 444.8 22.5C466 19.3 487 23.7 508.2 26.3C529.3 29 550.7 30 571.8 33.5C593 37 614 43 635.2 44.3C656.3 45.7 677.7 42.3 698.8 41.8C720 41.3 741 43.7 762.2 40.3C783.3 37 804.7 28 825.8 22.7C847 17.3 868 15.7 889.2 17C910.3 18.3 931.7 22.7 952.8 26.8C974 31 995 35 1016.2 36.3C1037.3 37.7 1058.7 36.3 1069.3 35.7L1080 35L1080 0L1069.3 0C1058.7 0 1037.3 0 1016.2 0C995 0 974 0 952.8 0C931.7 0 910.3 0 889.2 0C868 0 847 0 825.8 0C804.7 0 783.3 0 762.2 0C741 0 720 0 698.8 0C677.7 0 656.3 0 635.2 0C614 0 593 0 571.8 0C550.7 0 529.3 0 508.2 0C487 0 466 0 444.8 0C423.7 0 402.3 0 381.2 0C360 0 339 0 317.8 0C296.7 0 275.3 0 254.2 0C233 0 212 0 190.8 0C169.7 0 148.3 0 127.2 0C106 0 85 0 63.8 0C42.7 0 21.3 0 10.7 0L0 0Z" fill="#2e95cc"></path></svg>